<svg xmlns="http://www.w3.org/2000/svg" width="60" height="61" viewBox="0 0 60 61" fill="none">
  <path opacity="0.3" fill-rule="evenodd" clip-rule="evenodd" d="M0 30.5V37.5C0 50.2025 10.2975 60.5 23 60.5H30H37C49.7025 60.5 60 50.2025 60 37.5V30.5V23.5C60 10.7975 49.7025 0.5 37 0.5H30H23C10.2975 0.5 0 10.7975 0 23.5V30.5Z" fill="#9BD1AE"/>
  <mask id="mask0_2348_1545" style="mask-type:alpha" maskUnits="userSpaceOnUse" x="13" y="14" width="34" height="34">
    <rect x="13.6196" y="14.5" width="32.5656" height="32.5656" fill="#D9D9D9"/>
  </mask>
  <g mask="url(#mask0_2348_1545)">
    <path d="M24.4747 23.9983C23.344 23.9983 22.3829 23.6025 21.5913 22.811C20.7998 22.0195 20.4041 21.0583 20.4041 19.9276C20.4041 18.7968 20.7998 17.8357 21.5913 17.0442C22.3829 16.2526 23.344 15.8569 24.4747 15.8569C25.3341 15.8569 26.1143 16.1113 26.8154 16.6201C27.5165 17.129 28.0253 17.7791 28.3419 18.5707H39.4006V21.2845H38.0437V23.9983H35.3299V21.2845H28.3419C28.0253 22.076 27.5165 22.7262 26.8154 23.235C26.1143 23.7438 25.3341 23.9983 24.4747 23.9983ZM24.4747 21.2845C24.8592 21.2845 25.1815 21.1544 25.4415 20.8944C25.7016 20.6343 25.8316 20.312 25.8316 19.9276C25.8316 19.5431 25.7016 19.2208 25.4415 18.9608C25.1815 18.7007 24.8592 18.5707 24.4747 18.5707C24.0903 18.5707 23.768 18.7007 23.508 18.9608C23.2479 19.2208 23.1178 19.5431 23.1178 19.9276C23.1178 20.312 23.2479 20.6343 23.508 20.8944C23.768 21.1544 24.0903 21.2845 24.4747 21.2845ZM25.8316 38.2457C26.2161 38.2457 26.5384 38.1157 26.7984 37.8556C27.0585 37.5955 27.1885 37.2732 27.1885 36.8888C27.1885 36.5043 27.0585 36.1821 26.7984 35.922C26.5384 35.6619 26.2161 35.5319 25.8316 35.5319C25.4472 35.5319 25.1249 35.6619 24.8649 35.922C24.6048 36.1821 24.4747 36.5043 24.4747 36.8888C24.4747 37.2732 24.6048 37.5955 24.8649 37.8556C25.1249 38.1157 25.4472 38.2457 25.8316 38.2457ZM33.973 38.2457C34.3575 38.2457 34.6798 38.1157 34.9398 37.8556C35.1999 37.5955 35.3299 37.2732 35.3299 36.8888C35.3299 36.5043 35.1999 36.1821 34.9398 35.922C34.6798 35.6619 34.3575 35.5319 33.973 35.5319C33.5886 35.5319 33.2663 35.6619 33.0062 35.922C32.7462 36.1821 32.6161 36.5043 32.6161 36.8888C32.6161 37.2732 32.7462 37.5955 33.0062 37.8556C33.2663 38.1157 33.5886 38.2457 33.973 38.2457ZM20.4041 34.3107L22.6429 27.7976C22.756 27.481 22.9426 27.2209 23.2027 27.0174C23.4627 26.8138 23.7511 26.7121 24.0677 26.7121H35.737C36.0536 26.7121 36.342 26.8138 36.602 27.0174C36.8621 27.2209 37.0487 27.481 37.1617 27.7976L39.4006 34.3107V43.2662C39.4006 43.5828 39.2989 43.8429 39.0953 44.0464C38.8918 44.25 38.6317 44.3517 38.3151 44.3517H37.7723C37.4557 44.3517 37.1957 44.25 36.9921 44.0464C36.7886 43.8429 36.6868 43.5828 36.6868 43.2662V41.6379H23.1178V43.2662C23.1178 43.5828 23.0161 43.8429 22.8125 44.0464C22.609 44.25 22.3489 44.3517 22.0323 44.3517H21.4896C21.173 44.3517 20.9129 44.25 20.7094 44.0464C20.5058 43.8429 20.4041 43.5828 20.4041 43.2662V34.3107ZM23.9998 32.1396H35.8048L34.855 29.4259H24.9497L23.9998 32.1396ZM23.1178 38.9241H36.6868V34.8534H23.1178V38.9241Z" fill="#58B379"/>
  </g>
</svg>