<svg xmlns="http://www.w3.org/2000/svg" width="60" height="61" viewBox="0 0 60 61" fill="none">
  <path opacity="0.3" fill-rule="evenodd" clip-rule="evenodd" d="M0 30.5V37.5C0 50.2025 10.2975 60.5 23 60.5H30H37C49.7025 60.5 60 50.2025 60 37.5V30.5V23.5C60 10.7975 49.7025 0.5 37 0.5H30H23C10.2975 0.5 0 10.7975 0 23.5V30.5Z" fill="#FF9066"/>
  <mask id="mask0_2348_1564" style="mask-type:alpha" maskUnits="userSpaceOnUse" x="14" y="14" width="32" height="33">
    <rect x="14" y="14.5" width="32" height="32" fill="#D9D9D9"/>
  </mask>
  <g mask="url(#mask0_2348_1564)">
    <path d="M22.6665 35.8333C23.2221 35.8333 23.6943 35.6389 24.0832 35.25C24.4721 34.8611 24.6665 34.3889 24.6665 33.8333C24.6665 33.2778 24.4721 32.8055 24.0832 32.4166C23.6943 32.0278 23.2221 31.8333 22.6665 31.8333C22.1109 31.8333 21.6387 32.0278 21.2498 32.4166C20.8609 32.8055 20.6665 33.2778 20.6665 33.8333C20.6665 34.3889 20.8609 34.8611 21.2498 35.25C21.6387 35.6389 22.1109 35.8333 22.6665 35.8333ZM34.6665 35.8333C35.1109 35.8333 35.511 35.7 35.8665 35.4333C36.2221 35.1666 36.4554 34.8222 36.5665 34.4C36.1221 34.3111 35.6998 34.1611 35.2998 33.95C34.8998 33.7389 34.5332 33.4666 34.1998 33.1333L33.3665 32.3C33.1443 32.4778 32.9721 32.7 32.8498 32.9666C32.7276 33.2333 32.6665 33.5222 32.6665 33.8333C32.6665 34.3889 32.8609 34.8611 33.2498 35.25C33.6387 35.6389 34.1109 35.8333 34.6665 35.8333ZM20.6665 39.8333V41.1666C20.6665 41.5444 20.5387 41.8611 20.2832 42.1166C20.0276 42.3722 19.7109 42.5 19.3332 42.5H17.9998C17.6221 42.5 17.3054 42.3722 17.0498 42.1166C16.7943 41.8611 16.6665 41.5444 16.6665 41.1666V30.5L19.4665 22.5C19.5998 22.1 19.8387 21.7778 20.1832 21.5333C20.5276 21.2889 20.9109 21.1666 21.3332 21.1666H25.9998V23C25.9998 23.1333 26.0054 23.2722 26.0165 23.4166C26.0276 23.5611 26.0443 23.7 26.0665 23.8333H21.7998L20.3998 27.8333H28.8998L31.5665 30.5H19.3332V37.1666H37.9998V34.4666C38.4887 34.4222 38.9609 34.3 39.4165 34.1C39.8721 33.9 40.2887 33.6222 40.6665 33.2666V41.1666C40.6665 41.5444 40.5387 41.8611 40.2832 42.1166C40.0276 42.3722 39.7109 42.5 39.3332 42.5H37.9998C37.6221 42.5 37.3054 42.3722 37.0498 42.1166C36.7943 41.8611 36.6665 41.5444 36.6665 41.1666V39.8333H20.6665ZM33.9998 22.5C34.3776 22.5 34.6943 22.3722 34.9498 22.1166C35.2054 21.8611 35.3332 21.5444 35.3332 21.1666C35.3332 20.7889 35.2054 20.4722 34.9498 20.2166C34.6943 19.9611 34.3776 19.8333 33.9998 19.8333C33.6221 19.8333 33.3054 19.9611 33.0498 20.2166C32.7943 20.4722 32.6665 20.7889 32.6665 21.1666C32.6665 21.5444 32.7943 21.8611 33.0498 22.1166C33.3054 22.3722 33.6221 22.5 33.9998 22.5ZM36.0665 31.2333L29.2665 24.4333C29.0887 24.2555 28.9443 24.0389 28.8332 23.7833C28.7221 23.5278 28.6665 23.2666 28.6665 23V17.8333C28.6665 17.2778 28.8609 16.8055 29.2498 16.4166C29.6387 16.0278 30.1109 15.8333 30.6665 15.8333H35.8332C36.0998 15.8333 36.361 15.8889 36.6165 16C36.8721 16.1111 37.0887 16.2555 37.2665 16.4333L44.0665 23.2333C44.4443 23.6111 44.6332 24.0833 44.6332 24.65C44.6332 25.2166 44.4443 25.6889 44.0665 26.0666L38.8998 31.2333C38.5221 31.6111 38.0498 31.8 37.4832 31.8C36.9165 31.8 36.4443 31.6111 36.0665 31.2333ZM37.4998 28.9L41.7332 24.6666L35.5665 18.5H31.3332V22.7333L37.4998 28.9Z" fill="#E45555"/>
  </g>
</svg>