<svg xmlns="http://www.w3.org/2000/svg" width="60" height="61" viewBox="0 0 60 61" fill="none">
  <path opacity="0.21" fill-rule="evenodd" clip-rule="evenodd" d="M0 30.5V37.5C0 50.2025 10.2975 60.5 23 60.5H30H37C49.7025 60.5 60 50.2025 60 37.5V30.5V23.5C60 10.7975 49.7025 0.5 37 0.5H30H23C10.2975 0.5 0 10.7975 0 23.5V30.5Z" fill="#5C3A2C"/>
  <mask id="mask0_2348_1583" style="mask-type:alpha" maskUnits="userSpaceOnUse" x="14" y="14" width="32" height="33">
    <rect x="14" y="14.5" width="32" height="32" fill="#D9D9D9"/>
  </mask>
  <g mask="url(#mask0_2348_1583)">
    <path d="M16.6666 43.8333C16.2888 43.8333 15.9721 43.7055 15.7166 43.45C15.461 43.1944 15.3333 42.8778 15.3333 42.5V31.8333L18.1666 25.0666C18.3221 24.6889 18.5666 24.3889 18.8999 24.1666C19.2333 23.9444 19.5999 23.8333 19.9999 23.8333H31.9999C32.3999 23.8333 32.7666 23.9444 33.0999 24.1666C33.4333 24.3889 33.6777 24.6889 33.8333 25.0666L36.6666 31.8333V42.5C36.6666 42.8778 36.5388 43.1944 36.2833 43.45C36.0277 43.7055 35.711 43.8333 35.3333 43.8333H33.9999C33.6221 43.8333 33.3055 43.7055 33.0499 43.45C32.7944 43.1944 32.6666 42.8778 32.6666 42.5V41.1666H19.3333V42.5C19.3333 42.8778 19.2055 43.1944 18.9499 43.45C18.6944 43.7055 18.3777 43.8333 17.9999 43.8333H16.6666ZM19.0666 29.1666H32.8999L31.7999 26.5H20.1999L19.0666 29.1666ZM17.9999 38.5H33.9999V31.8333H17.9999V38.5ZM21.3333 37.1666C21.8888 37.1666 22.361 36.9722 22.7499 36.5833C23.1388 36.1944 23.3333 35.7222 23.3333 35.1666C23.3333 34.6111 23.1388 34.1389 22.7499 33.75C22.361 33.3611 21.8888 33.1666 21.3333 33.1666C20.7777 33.1666 20.3055 33.3611 19.9166 33.75C19.5277 34.1389 19.3333 34.6111 19.3333 35.1666C19.3333 35.7222 19.5277 36.1944 19.9166 36.5833C20.3055 36.9722 20.7777 37.1666 21.3333 37.1666ZM30.6666 37.1666C31.2221 37.1666 31.6944 36.9722 32.0833 36.5833C32.4721 36.1944 32.6666 35.7222 32.6666 35.1666C32.6666 34.6111 32.4721 34.1389 32.0833 33.75C31.6944 33.3611 31.2221 33.1666 30.6666 33.1666C30.111 33.1666 29.6388 33.3611 29.2499 33.75C28.861 34.1389 28.6666 34.6111 28.6666 35.1666C28.6666 35.7222 28.861 36.1944 29.2499 36.5833C29.6388 36.9722 30.111 37.1666 30.6666 37.1666ZM37.9999 39.8333V28.3666L35.5666 22.5H21.5666L22.1666 21.0666C22.3221 20.6889 22.5666 20.3889 22.8999 20.1666C23.2333 19.9444 23.5999 19.8333 23.9999 19.8333H35.9999C36.3999 19.8333 36.7666 19.9444 37.0999 20.1666C37.4333 20.3889 37.6777 20.6889 37.8333 21.0666L40.6666 27.8333V38.5C40.6666 38.8778 40.5388 39.1944 40.2833 39.45C40.0277 39.7055 39.711 39.8333 39.3333 39.8333H37.9999ZM41.9999 35.8333V24.3666L39.5666 18.5H25.5666L26.1666 17.0666C26.3221 16.6889 26.5666 16.3889 26.8999 16.1666C27.2333 15.9444 27.5999 15.8333 27.9999 15.8333H39.9999C40.3999 15.8333 40.7666 15.9444 41.0999 16.1666C41.4333 16.3889 41.6777 16.6889 41.8333 17.0666L44.6666 23.8333V34.5C44.6666 34.8778 44.5388 35.1944 44.2833 35.45C44.0277 35.7055 43.711 35.8333 43.3333 35.8333H41.9999Z" fill="#5C3A2C"/>
  </g>
</svg>