<svg width="20" height="21" viewBox="0 0 20 21" fill="none" xmlns="http://www.w3.org/2000/svg">
<path d="M11.2859 1.48224H17.2859C17.7592 1.48224 18.143 1.95558 18.143 2.33938V10.9108C18.143 11.3841 17.7592 11.7679 17.2859 11.7679H11.2859C10.8125 11.7679 10.4287 11.2946 10.4287 10.9108V2.33938C10.4287 1.86604 10.8125 1.48224 11.2859 1.48224Z" fill="white"/>
<path d="M1.85714 9.19656H7.85714C8.33048 9.19656 8.71428 9.66991 8.71428 10.0537V18.6251C8.71428 19.0985 8.33048 19.4823 7.85714 19.4823H1.85714C1.3838 19.4823 1 19.0089 1 18.6251V10.0537C1 9.58036 1.3838 9.19656 1.85714 9.19656Z" fill="white"/>
<path d="M1.85714 1.48224H7.85714C8.33048 1.48224 8.71428 1.95558 8.71428 2.33938V7.48223C8.71428 7.95558 8.33048 8.33938 7.85714 8.33938H1.85714C1.3838 8.33938 1 7.86603 1 7.48223V2.33938C1 1.86604 1.3838 1.48224 1.85714 1.48224Z" fill="white"/>
<path d="M11.2859 12.6251H17.2859C17.7592 12.6251 18.143 13.0984 18.143 13.4822V18.6251C18.143 19.0984 17.7592 19.4822 17.2859 19.4822H11.2859C10.8125 19.4822 10.4287 19.0089 10.4287 18.6251V13.4822C10.4287 13.0089 10.8125 12.6251 11.2859 12.6251Z" fill="white"/>
</svg>
