<svg xmlns="http://www.w3.org/2000/svg" width="60" height="61" viewBox="0 0 60 61" fill="none">
  <path opacity="0.21" fill-rule="evenodd" clip-rule="evenodd" d="M0 30.5V37.5C0 50.2025 10.2975 60.5 23 60.5H30H37C49.7025 60.5 60 50.2025 60 37.5V30.5V23.5C60 10.7975 49.7025 0.5 37 0.5H30H23C10.2975 0.5 0 10.7975 0 23.5V30.5Z" fill="#D2AC47"/>
  <path opacity="0.587821" fill-rule="evenodd" clip-rule="evenodd" d="M20.6667 23.8333C20.6667 26.7789 23.0546 29.1667 26.0001 29.1667C28.9456 29.1667 31.3334 26.7789 31.3334 23.8333C31.3334 20.8878 28.9456 18.5 26.0001 18.5C23.0546 18.5 20.6667 20.8878 20.6667 23.8333ZM34.0001 29.1667C34.0001 31.3758 35.7909 33.1667 38.0001 33.1667C40.2092 33.1667 42.0001 31.3758 42.0001 29.1667C42.0001 26.9575 40.2092 25.1667 38.0001 25.1667C35.7909 25.1667 34.0001 26.9575 34.0001 29.1667Z" fill="#D2AC47"/>
  <path fill-rule="evenodd" clip-rule="evenodd" d="M25.9778 31.8333C19.6826 31.8333 14.5177 35.0687 14.0009 41.4323C13.9727 41.7789 14.6356 42.5 14.97 42.5H36.9956C37.9972 42.5 38.0128 41.6939 37.9972 41.4333C37.6065 34.8909 32.3616 31.8333 25.9778 31.8333ZM45.2746 42.5L40.1333 42.5C40.1333 39.4987 39.1417 36.7291 37.4683 34.5008C42.0103 34.5505 45.7189 36.8468 45.998 41.7C46.0092 41.8955 45.998 42.5 45.2746 42.5Z" fill="#D2AC47"/>
</svg>